<svg xmlns="http://www.w3.org/2000/svg" viewBox="0 0 680 520" fill="none">
  <rect width="680" height="520" fill="transparent"/>
  <ellipse cx="340" cy="460" rx="230" ry="24" fill="#1E3A5F" opacity="0.45"/>
  <rect x="180" y="100" width="300" height="320" rx="24" fill="#152238" stroke="#3B82F6" stroke-width="3"/>
  <circle cx="330" cy="180" r="42" fill="#2563EB"/>
  <circle cx="330" cy="170" r="16" fill="#F1F5F9"/>
  <path d="M304 210c8-16 44-16 52 0v10h-52v-10z" fill="#F1F5F9"/>
  <rect x="230" y="250" width="200" height="16" rx="8" fill="#334155"/>
  <rect x="230" y="282" width="200" height="36" rx="10" fill="#0E1726" stroke="#475569" stroke-width="2"/>
  <rect x="230" y="332" width="200" height="36" rx="10" fill="#0E1726" stroke="#475569" stroke-width="2"/>
  <rect x="230" y="382" width="200" height="20" rx="10" fill="#3B82F6"/>
  <circle cx="120" cy="160" r="28" fill="#60A5FA" opacity="0.35"/>
  <circle cx="560" cy="220" r="36" fill="#1D4ED8" opacity="0.4"/>
  <path d="M520 360l28-28 48 48" stroke="#60A5FA" stroke-width="8" stroke-linecap="round" stroke-linejoin="round"/>
</svg>
